<?xml version="1.0" standalone="no"?>
<!DOCTYPE svg PUBLIC "-//W3C//DTD SVG 20010904//EN"
 "http://www.w3.org/TR/2001/REC-SVG-20010904/DTD/svg10.dtd">
<svg version="1.0" xmlns="http://www.w3.org/2000/svg"
 width="512.000000pt" height="512.000000pt" viewBox="0 0 512.000000 512.000000"
 preserveAspectRatio="xMidYMid meet">

<g transform="translate(0.000000,512.000000) scale(0.100000,-0.100000)"
fill="#000000" stroke="none">
<path d="M2156 4783 c-232 -49 -414 -190 -522 -406 -55 -109 -74 -207 -74
-389 l0 -158 -351 -2 -352 -3 -18 -25 c-15 -20 -34 -152 -104 -707 -47 -375
-85 -691 -85 -703 0 -11 11 -32 25 -45 31 -32 78 -33 108 -3 21 21 28 68 100
648 43 344 80 637 83 653 l6 27 294 0 294 0 0 -95 0 -95 -37 -15 c-61 -26
-120 -81 -150 -143 -24 -48 -28 -69 -27 -132 1 -87 18 -132 71 -191 60 -66
114 -92 203 -97 67 -4 85 -1 131 20 73 33 110 66 143 129 37 68 46 164 22 237
-22 66 -92 144 -151 169 l-45 18 0 99 0 99 113 -6 c61 -4 327 -7 590 -7 l477
0 0 -90 0 -90 -44 -21 c-146 -68 -212 -250 -142 -393 125 -256 504 -205 554
74 24 131 -42 257 -165 319 l-43 21 0 85 0 85 311 0 311 0 -5 -32 c-3 -18 -92
-721 -197 -1563 -105 -841 -193 -1540 -196 -1552 l-4 -23 -1350 0 c-742 0
-1351 3 -1353 8 -2 4 40 358 94 787 54 429 98 790 99 803 0 29 -51 82 -79 82
-11 0 -34 -12 -50 -27 l-30 -28 -101 -823 -102 -823 24 -46 c17 -33 36 -53 67
-70 l44 -23 2057 0 c2031 0 2056 0 2077 20 12 10 24 28 27 38 3 10 -27 295
-68 632 -74 609 -75 615 -101 637 -33 29 -65 29 -99 2 -21 -17 -26 -28 -26
-67 0 -26 27 -263 59 -527 32 -264 57 -481 56 -483 -3 -4 -470 312 -497 336
-17 14 -18 69 -18 888 l0 873 -26 20 c-35 28 -67 26 -101 -3 l-28 -24 -3 -879
-2 -879 -195 -158 c-107 -86 -195 -151 -195 -145 0 7 86 693 190 1525 105 832
190 1515 190 1518 0 4 71 5 157 4 l158 -3 107 -885 c107 -881 107 -885 133
-907 33 -29 67 -29 101 0 22 19 26 31 25 68 0 24 -50 449 -110 944 l-109 899
-27 23 c-26 23 -27 23 -354 23 l-329 0 -4 188 c-4 179 -6 191 -37 282 -112
330 -414 537 -751 517 -52 -3 -126 -15 -164 -26 -52 -14 -76 -17 -95 -9 -97
37 -268 47 -385 21z m177 -179 c-86 -72 -170 -204 -213 -339 -20 -59 -24 -100
-29 -255 l-6 -185 -40 -3 c-22 -2 -104 -1 -182 3 l-143 7 0 150 c0 172 12 233
67 342 45 89 152 198 240 244 81 43 191 71 278 71 l70 1 -42 -36z m629 22
c171 -37 323 -155 403 -313 50 -100 57 -138 62 -325 l5 -178 -185 0 -185 0 -5
183 c-5 209 -15 257 -82 394 -34 68 -64 112 -121 172 l-76 81 58 0 c33 0 89
-7 126 -14z m-237 -162 c63 -63 116 -147 146 -234 19 -55 23 -92 27 -237 l4
-173 -326 0 -326 0 0 156 c0 179 12 242 68 348 44 84 114 162 193 215 l60 40
51 -31 c28 -18 75 -55 103 -84z m-1042 -1148 c18 -7 45 -28 60 -45 68 -81 3
-211 -105 -211 -72 0 -138 65 -138 136 0 41 37 95 80 116 42 22 60 22 103 4z
m1374 -13 c52 -35 72 -127 39 -178 -24 -36 -75 -65 -114 -65 -85 0 -151 80
-135 162 7 36 62 95 95 101 34 7 88 -2 115 -20z m1094 -2675 l210 -143 -196
-3 c-108 -1 -283 -1 -388 0 l-191 3 174 142 c96 78 176 142 178 142 1 1 97
-63 213 -141z"/>
</g>
</svg>
