<?xml version="1.0" standalone="no"?>
<!DOCTYPE svg PUBLIC "-//W3C//DTD SVG 20010904//EN"
 "http://www.w3.org/TR/2001/REC-SVG-20010904/DTD/svg10.dtd">
<svg version="1.0" xmlns="http://www.w3.org/2000/svg"
 width="512.000000pt" height="512.000000pt" viewBox="0 0 512.000000 512.000000"
 preserveAspectRatio="xMidYMid meet">

<g transform="translate(0.000000,512.000000) scale(0.100000,-0.100000)"
fill="#000000" stroke="none">
<path d="M2320 5005 c-404 -69 -754 -295 -981 -633 -110 -165 -177 -321 -222
-520 -18 -82 -21 -127 -21 -292 0 -173 3 -209 27 -320 127 -600 603 -1516
1300 -2503 130 -184 141 -183 279 1 212 285 456 648 640 958 354 594 572 1103
660 1544 32 162 33 468 1 610 -44 198 -114 360 -223 523 -230 344 -595 574
-1007 636 -95 15 -359 12 -453 -4z m555 -159 c124 -31 184 -54 305 -117 364
-187 628 -554 696 -968 24 -145 15 -369 -21 -540 -86 -412 -339 -972 -713
-1581 -171 -277 -556 -840 -580 -847 -8 -3 -20 14 -207 292 -618 916 -1017
1726 -1106 2243 -108 634 247 1247 854 1476 54 20 190 55 277 70 14 2 108 3
210 1 160 -2 199 -6 285 -29z"/>
<path d="M2407 4384 c-177 -32 -332 -118 -465 -259 -65 -69 -92 -107 -132
-188 -71 -145 -92 -232 -92 -387 0 -150 21 -240 86 -375 111 -227 319 -389
576 -450 96 -22 275 -20 380 5 302 73 539 308 622 619 28 107 28 295 -1 406
-84 324 -351 573 -675 630 -107 18 -194 18 -299 -1z m333 -149 c84 -22 208
-88 278 -147 179 -151 273 -392 242 -620 -37 -273 -212 -490 -469 -582 -81
-29 -94 -31 -231 -31 -137 0 -150 2 -231 31 -203 72 -366 235 -435 433 -144
413 117 852 554 931 63 12 224 4 292 -15z"/>
<path d="M3218 1053 c-10 -11 -18 -34 -18 -51 0 -45 35 -68 117 -76 187 -19
497 -98 614 -157 117 -59 144 -102 92 -151 -102 -96 -423 -182 -868 -235 -218
-26 -972 -26 -1190 0 -443 52 -766 140 -867 235 -52 49 -26 93 87 150 111 55
365 124 544 147 91 12 125 66 77 121 l-23 28 -114 -17 c-146 -22 -361 -76
-464 -117 -191 -76 -275 -157 -275 -266 0 -201 353 -343 1040 -420 197 -21
764 -30 986 -15 781 55 1234 215 1234 436 0 167 -227 289 -696 375 -58 11
-141 23 -183 26 -67 6 -78 4 -93 -13z"/>
</g>
</svg>
