<?xml version="1.0" standalone="no"?>
<!DOCTYPE svg PUBLIC "-//W3C//DTD SVG 20010904//EN"
 "http://www.w3.org/TR/2001/REC-SVG-20010904/DTD/svg10.dtd">
<svg version="1.0" xmlns="http://www.w3.org/2000/svg"
 width="512.000000pt" height="512.000000pt" viewBox="0 0 512.000000 512.000000"
 preserveAspectRatio="xMidYMid meet">

<g transform="translate(0.000000,512.000000) scale(0.100000,-0.100000)"
fill="#000000" stroke="none">
<path d="M325 4321 c-56 -34 -70 -58 -70 -121 0 -48 4 -63 25 -85 55 -59 -113
-55 2282 -55 2115 0 2205 1 2237 18 95 51 93 200 -3 246 -31 15 -235 16 -2238
16 -2127 0 -2204 -1 -2233 -19z"/>
<path d="M325 2681 c-56 -34 -70 -58 -70 -121 0 -48 4 -63 25 -85 55 -59 -113
-55 2282 -55 2115 0 2205 1 2237 18 95 51 93 200 -3 246 -31 15 -235 16 -2238
16 -2127 0 -2204 -1 -2233 -19z"/>
<path d="M325 1041 c-56 -34 -70 -58 -70 -121 0 -48 4 -63 25 -85 55 -59 -113
-55 2282 -55 2115 0 2205 1 2237 18 95 51 93 200 -3 246 -31 15 -235 16 -2238
16 -2127 0 -2204 -1 -2233 -19z"/>
</g>
</svg>
