<?xml version="1.0" standalone="no"?>
<!DOCTYPE svg PUBLIC "-//W3C//DTD SVG 20010904//EN"
 "http://www.w3.org/TR/2001/REC-SVG-20010904/DTD/svg10.dtd">
<svg version="1.0" xmlns="http://www.w3.org/2000/svg"
 width="512.000000pt" height="512.000000pt" viewBox="0 0 512.000000 512.000000"
 preserveAspectRatio="xMidYMid meet">

<g transform="translate(0.000000,512.000000) scale(0.100000,-0.100000)"
fill="#000000" stroke="none">
<path d="M2438 4900 c-158 -20 -340 -88 -475 -177 -72 -48 -192 -160 -248
-233 -146 -191 -218 -407 -218 -650 0 -303 113 -565 334 -775 306 -290 768
-372 1150 -204 357 156 594 481 640 874 27 234 -39 492 -179 704 -50 76 -171
201 -252 261 -73 54 -214 128 -295 154 -134 42 -328 62 -457 46z m292 -224
c167 -35 308 -112 431 -235 167 -168 249 -364 249 -601 0 -237 -82 -433 -249
-601 -179 -178 -378 -255 -636 -246 -113 3 -142 8 -225 36 -302 102 -511 336
-577 646 -23 110 -13 306 22 415 96 301 331 516 640 585 79 18 263 18 345 1z"/>
<path d="M1993 2339 c-656 -63 -1198 -553 -1323 -1196 -31 -160 -37 -320 -16
-419 43 -193 164 -351 339 -440 145 -74 35 -69 1567 -69 1299 0 1379 1 1439
18 314 89 496 353 478 692 -20 377 -173 719 -438 984 -120 121 -241 207 -394
282 -184 89 -326 129 -532 149 -124 12 -997 11 -1120 -1z m1208 -225 c492 -83
898 -455 1023 -937 54 -209 55 -387 1 -505 -28 -61 -110 -151 -169 -186 -101
-59 -26 -56 -1498 -56 -1330 0 -1349 0 -1409 20 -79 27 -123 56 -182 119 -95
102 -126 218 -107 403 26 247 118 482 260 663 58 74 193 204 269 258 147 106
346 189 526 221 124 22 1155 22 1286 0z"/>
</g>
</svg>
